<?xml version="1.0" standalone="no"?>
<svg version="1.0" xmlns="http://www.w3.org/2000/svg"
viewBox="0 0 358.000000 300.000000"
 preserveAspectRatio="xMidYMid meet">

<g transform="translate(0.000000,300.000000) scale(0.100000,-0.100000)" stroke="none">
<path d="M1837 2832 c-23 -25 -22 -79 1 -91 38 -20 56 37 29 87 -13 22 -14 22
-30 4z"/>
<path d="M1730 2750 c0 -47 80 -81 88 -38 4 23 -33 58 -63 58 -18 0 -25 -5
-25 -20z"/>
<path d="M1490 2731 c-14 -36 1 -71 30 -71 25 0 37 42 21 76 -14 32 -36 30
-51 -5z"/>
<path d="M1634 2730 c-4 -19 -18 -36 -40 -49 -30 -18 -34 -25 -34 -61 0 -27 4
-40 13 -40 22 0 47 34 47 63 0 31 3 32 30 15 28 -18 52 15 38 51 -21 57 -45
66 -54 21z"/>
<path d="M1911 2747 c-31 -15 -46 -40 -38 -61 9 -23 30 -20 61 9 43 40 26 78
-23 52z"/>
<path d="M1190 2730 c-13 -25 -6 -51 18 -74 16 -13 21 -14 37 -2 17 12 17 17
5 45 -18 44 -46 58 -60 31z"/>
<path d="M1286 2678 c-35 -49 -6 -100 34 -63 28 25 28 85 1 85 -11 0 -27 -10
-35 -22z"/>
<path d="M1390 2680 c0 -26 40 -62 65 -58 49 7 16 78 -37 78 -21 0 -28 -5 -28
-20z"/>
<path d="M2439 2676 c-16 -34 -4 -76 21 -76 29 0 44 35 30 71 -15 35 -37 37
-51 5z"/>
<path d="M1714 2648 c7 -38 33 -61 59 -54 15 4 17 -1 14 -27 -3 -31 -27 -52
-27 -24 0 8 -7 17 -14 20 -11 4 -13 1 -9 -11 4 -9 11 -20 16 -24 6 -3 11 -17
13 -31 2 -25 2 -25 -17 -6 -24 24 -84 27 -75 3 3 -9 6 -20 6 -25 0 -4 14 -16
32 -25 29 -15 32 -15 44 0 11 15 12 15 18 0 16 -43 8 -51 -44 -46 -41 4 -51 1
-56 -13 -12 -29 55 -57 88 -36 17 10 20 7 34 -26 8 -21 21 -51 29 -68 50 -102
67 -167 47 -179 -18 -11 -199 44 -185 57 16 17 -7 8 -74 -27 l-31 -16 -22 57
c-19 51 -21 72 -16 173 2 63 8 134 11 158 10 58 1 84 -34 105 -36 21 -61 22
-87 2 -19 -14 -18 -15 6 -35 30 -24 53 -25 74 -5 8 8 18 15 21 15 9 0 0 -81
-15 -139 -6 -24 -12 -75 -13 -112 -1 -38 -4 -69 -7 -69 -3 0 -32 28 -65 62
-33 35 -77 75 -97 91 -26 19 -41 40 -48 67 -13 49 -8 60 30 60 23 0 33 7 45
30 19 36 19 50 0 50 -20 0 -65 -21 -65 -31 0 -4 -5 -20 -10 -34 -10 -26 -11
-27 -36 -10 -32 21 -98 17 -102 -6 -5 -25 52 -45 84 -30 14 6 26 11 28 11 8 0
11 -72 4 -76 -5 -3 -38 -6 -74 -5 -49 0 -72 5 -94 21 -35 25 -40 16 -7 -12
l22 -20 -32 6 c-22 5 -39 2 -57 -9 -33 -22 -33 -33 -1 -45 29 -11 75 5 75 27
0 10 20 13 78 13 74 0 82 -2 138 -38 114 -74 243 -270 260 -396 4 -23 -1 -82
-11 -131 -21 -115 -14 -180 26 -232 16 -21 43 -56 59 -77 27 -36 41 -86 23
-86 -10 0 -148 57 -193 80 -81 41 -96 105 -85 345 7 144 14 181 30 155 10 -16
41 -12 66 9 20 16 21 21 10 35 -18 22 -53 20 -85 -5 -14 -11 -26 -17 -26 -14
0 4 -6 2 -13 -4 -10 -8 -19 -7 -33 4 -26 19 -47 19 -74 -3 l-23 -19 24 -16
c29 -21 63 -22 83 -2 23 23 27 18 21 -22 -13 -75 -14 -77 -37 -48 -13 16 -29
25 -49 25 -24 0 -29 -4 -29 -24 0 -14 4 -27 10 -31 5 -3 7 -12 4 -19 -3 -8 13
-29 37 -49 l41 -36 4 -110 c4 -157 19 -179 174 -256 80 -39 123 -74 146 -117
16 -31 20 -208 5 -208 -6 0 -34 25 -63 56 -64 68 -177 145 -255 174 -119 44
-183 102 -183 165 0 35 28 79 36 58 14 -34 84 3 84 44 0 23 -2 25 -35 19 -39
-8 -40 -7 -23 29 9 21 16 25 38 20 34 -7 63 22 58 61 -5 43 -24 40 -78 -16
-27 -28 -50 -46 -50 -40 0 19 -48 60 -70 60 -29 0 -26 -35 6 -66 16 -17 32
-24 44 -21 17 4 18 2 8 -16 -20 -39 -52 -77 -63 -77 -16 0 -43 83 -59 183 -19
114 -10 137 84 213 95 77 97 88 31 192 -41 62 -109 101 -148 83 -31 -14 -29
-28 10 -51 41 -25 54 -25 62 0 9 28 17 25 37 -15 18 -36 16 -39 -17 -26 -24
10 -77 -7 -72 -23 2 -6 16 -18 30 -26 25 -14 30 -13 57 2 30 17 30 17 45 -12
l15 -28 -86 -71 c-85 -72 -85 -72 -112 -55 -47 27 -72 74 -79 146 -6 66 -6 66
19 61 33 -6 50 17 46 64 l-3 38 -33 -32 c-19 -18 -35 -33 -37 -33 -2 0 -7 17
-11 38 -9 50 -34 112 -45 112 -5 0 -9 -5 -9 -12 0 -9 -3 -9 -12 0 -23 23 -98
12 -98 -14 0 -29 74 -46 98 -22 8 8 15 8 21 2 12 -13 22 -114 11 -114 -5 0
-43 16 -85 35 -65 29 -78 39 -91 72 -17 40 -13 115 7 139 9 10 9 14 0 14 -6 0
-11 -5 -11 -11 0 -6 -8 -8 -19 -4 -17 5 -19 1 -15 -62 7 -120 13 -129 119
-178 96 -44 115 -63 115 -112 0 -57 22 -107 70 -157 47 -51 48 -52 52 -128 3
-65 1 -78 -12 -78 -23 0 -93 50 -181 129 -58 53 -79 79 -79 97 0 14 5 24 13
23 33 -4 48 3 62 31 9 17 13 35 10 41 -10 15 -47 0 -72 -29 l-21 -25 -7 36
c-8 43 -2 57 25 50 28 -7 60 24 60 59 0 33 -17 36 -53 8 -14 -11 -30 -20 -35
-20 -6 0 -12 -4 -14 -9 -2 -5 -16 2 -33 16 -19 16 -26 27 -17 30 36 14 -5 99
-45 91 -28 -5 -27 -37 3 -69 l28 -29 -26 0 c-26 0 -42 -19 -30 -36 4 -5 20
-18 36 -28 20 -13 31 -15 39 -7 20 20 37 12 37 -19 0 -33 -6 -36 -34 -15 -25
19 -60 19 -75 1 -20 -24 25 -58 72 -54 33 3 37 1 37 -19 0 -26 -13 -28 -69
-14 -20 6 -58 15 -85 22 -57 15 -116 67 -116 104 0 22 3 24 29 19 23 -5 32 -1
50 22 25 32 23 48 -7 52 -13 2 -31 -7 -45 -22 -30 -33 -35 -32 -40 2 -2 15 -5
-4 -6 -41 -1 -55 3 -75 20 -98 19 -27 85 -69 108 -69 5 0 22 -4 36 -10 25 -9
25 -11 11 -32 -20 -28 -21 -88 -3 -88 28 0 50 38 44 75 -5 34 -4 36 16 29 31
-10 43 -19 172 -133 108 -96 130 -121 105 -121 -15 0 -39 -60 -32 -78 2 -8 0
-17 -7 -21 -9 -6 -8 -16 3 -42 29 -72 29 -77 1 -71 -30 5 -75 -15 -75 -34 0
-7 9 -18 21 -24 25 -14 74 3 84 28 5 12 11 10 35 -13 17 -16 30 -32 30 -36 0
-10 -121 -33 -175 -32 -100 1 -143 50 -153 171 -5 60 -3 65 13 58 27 -10 55
21 55 61 0 25 -4 33 -18 33 -25 0 -52 -31 -52 -60 0 -20 -4 -18 -30 18 -17 23
-35 42 -40 42 -14 0 -13 -7 5 -34 9 -13 22 -66 31 -117 8 -52 17 -102 20 -111
5 -16 -3 -18 -73 -18 -75 0 -77 1 -57 18 29 23 35 47 23 80 l-11 27 -25 -29
c-18 -21 -24 -37 -21 -58 4 -27 3 -29 -21 -23 -14 3 -42 19 -61 34 -71 55 -79
52 -23 -10 46 -51 84 -67 181 -74 75 -6 212 -41 212 -55 0 -21 -92 -89 -127
-95 -21 -4 -47 -9 -57 -12 -17 -5 -16 -1 7 26 25 30 29 60 10 93 -15 27 -56
-38 -51 -81 3 -23 -1 -25 -47 -26 -55 -2 -80 -12 -109 -43 -22 -26 -13 -42 23
-42 31 0 61 27 61 54 0 14 5 17 23 12 13 -3 55 -8 94 -12 77 -7 87 -4 168 57
102 76 141 92 241 97 78 4 105 1 180 -21 140 -40 215 -78 278 -141 87 -87 84
-90 -91 -83 -124 5 -160 11 -218 32 -88 33 -115 50 -128 86 -14 37 -31 38 -22
2 11 -46 32 -70 85 -99 27 -15 50 -32 50 -38 0 -14 -139 -96 -163 -96 -16 0
-16 2 3 28 17 23 19 33 10 56 -12 32 -29 30 -50 -7 -12 -21 -12 -32 -3 -57
l11 -30 -53 0 c-40 0 -69 8 -119 33 -71 36 -86 33 -33 -7 116 -89 224 -87 380
6 66 40 70 41 155 39 151 -2 247 -37 324 -116 31 -32 36 -46 47 -118 14 -107
14 -169 -4 -297 -18 -134 -30 -172 -62 -211 -30 -36 -114 -79 -154 -79 -14 0
-34 -6 -44 -14 -18 -13 -14 -15 38 -21 32 -4 132 -2 224 5 107 8 231 9 350 5
131 -5 183 -4 183 4 0 6 -12 13 -27 17 -193 43 -234 84 -263 255 -8 47 -10
110 -6 173 7 113 32 171 102 242 51 51 103 69 254 84 172 17 210 31 290 104
90 83 120 91 288 81 221 -13 211 -14 259 40 33 36 43 55 43 80 0 46 -18 54
-47 21 -25 -30 -29 -56 -11 -74 15 -15 -16 -41 -51 -42 -22 0 -23 1 -9 18 23
25 30 69 15 83 -10 10 -6 20 24 51 20 22 39 49 42 60 5 16 -4 11 -36 -20 -41
-40 -121 -86 -178 -102 -28 -8 -29 -7 -29 26 0 34 13 65 38 92 19 21 14 24
-13 6 -24 -16 -25 -16 -25 9 0 54 -21 72 -46 40 -22 -30 -17 -72 10 -83 24 -9
25 -16 10 -86 -7 -35 -65 -62 -149 -70 -57 -5 -75 -4 -75 6 0 6 17 44 37 84
49 93 115 155 200 190 38 15 86 35 108 44 22 9 58 29 79 44 21 16 46 28 54 28
23 0 82 23 82 31 0 4 -17 5 -37 2 -73 -12 -74 -11 -58 30 4 9 3 17 -2 17 -5 0
-16 -16 -24 -36 -15 -39 -55 -74 -104 -92 -38 -13 -127 -34 -130 -30 -1 2 6
27 18 56 18 48 21 51 37 37 18 -16 95 -21 105 -6 3 6 -5 19 -17 30 -23 22 -72
28 -83 11 -3 -5 -11 -10 -17 -10 -7 0 -5 7 3 18 17 20 17 88 0 121 -7 12 -9
30 -6 40 4 13 -4 27 -26 45 -38 32 -63 30 -67 -6 -3 -22 2 -28 32 -39 40 -14
41 -17 25 -53 -15 -32 -4 -72 20 -79 19 -4 18 -7 -9 -63 -15 -33 -33 -73 -40
-91 -7 -18 -23 -36 -38 -43 -74 -31 -200 -198 -233 -308 -15 -53 -53 -84 -128
-106 -54 -16 -101 -21 -101 -11 0 3 16 37 36 76 42 84 26 86 -31 4 -57 -83
-79 -97 -172 -105 -43 -4 -98 -15 -123 -24 -63 -22 -80 -21 -80 7 1 48 39 160
67 195 54 67 89 79 266 92 86 6 168 15 182 20 43 16 104 90 155 188 48 90 52
126 8 57 -25 -38 -43 -46 -35 -15 8 32 -15 42 -51 20 -35 -22 -58 -18 -67 11
-8 25 -44 44 -57 31 -18 -18 0 -78 27 -90 14 -6 25 -18 25 -27 0 -23 -16 -18
-34 10 -11 17 -26 25 -46 25 -41 0 -44 -13 -14 -50 21 -24 32 -30 50 -26 16 4
24 2 25 -6 0 -7 3 -26 5 -43 8 -47 -13 -55 -148 -55 -73 0 -146 -6 -189 -16
-39 -9 -73 -14 -75 -11 -3 3 8 34 24 70 36 80 78 113 241 193 74 37 157 89
237 150 68 52 128 94 134 94 5 0 10 -6 10 -13 0 -23 35 -47 68 -47 64 0 18 69
-46 71 -30 0 -33 2 -17 9 18 8 18 9 2 9 -17 1 -76 -28 -134 -66 -25 -17 -26
-17 -19 7 4 14 12 35 18 48 9 17 9 25 0 34 -9 9 -12 8 -12 -3 0 -8 -9 -34 -20
-57 -11 -22 -20 -48 -20 -56 0 -27 -90 -82 -179 -111 -47 -15 -117 -41 -155
-56 -38 -16 -70 -28 -72 -26 -2 2 1 32 7 66 12 74 1 117 -37 144 -13 10 -35
17 -47 15 -46 -6 -1 -78 49 -78 17 0 24 -6 24 -19 0 -40 -53 -166 -89 -211
-37 -46 -45 -63 -71 -145 -18 -56 -51 -125 -60 -125 -13 0 -21 177 -10 242 21
128 70 271 121 349 67 105 138 139 288 139 150 0 239 28 330 104 36 30 46 34
67 26 14 -6 43 -10 66 -10 25 0 51 -8 70 -21 16 -12 32 -18 36 -15 3 4 0 11
-8 16 -8 5 -12 10 -10 12 47 30 70 31 70 3 0 -24 40 -29 68 -8 35 26 37 37 9
52 -17 9 -30 9 -51 2 l-28 -11 21 26 c12 15 18 30 15 33 -4 3 -9 0 -11 -7 -3
-7 -12 -20 -21 -29 -16 -16 -17 -15 -20 13 -4 31 -37 74 -59 74 -8 0 -13 -12
-13 -34 0 -25 6 -38 25 -50 35 -23 31 -36 -9 -36 -38 0 -49 9 -36 29 11 18 -8
69 -30 81 -23 12 -30 4 -30 -36 0 -23 6 -37 20 -44 35 -19 24 -33 -21 -27 -23
3 -46 10 -51 15 -5 5 1 30 17 63 14 30 28 71 31 92 7 39 9 39 60 20 14 -5 64
35 64 52 0 20 -40 25 -72 9 -25 -13 -28 -13 -28 1 0 32 -16 12 -33 -43 -11
-32 -25 -68 -32 -81 l-12 -24 -42 38 c-61 55 -98 122 -100 180 -1 21 -57 65
-82 65 -8 0 -24 -7 -35 -15 -19 -14 -18 -15 6 -35 27 -21 65 -26 75 -10 11 18
25 10 25 -14 0 -22 -3 -23 -43 -19 -46 6 -74 -13 -63 -42 9 -24 72 -19 90 7
15 21 16 21 22 2 14 -45 42 -90 82 -134 23 -26 42 -54 42 -61 -1 -27 -95 -119
-122 -119 -3 0 -1 14 5 31 10 26 9 33 -4 43 -15 10 -15 14 -3 31 19 25 18 61
-2 69 -19 7 -64 -36 -64 -63 0 -11 7 -24 15 -28 14 -8 14 -11 0 -28 -14 -20
-15 -20 -21 3 -7 24 -24 30 -24 9 0 -28 -33 -79 -64 -98 -24 -15 -50 -19 -118
-19 l-88 0 0 28 c1 39 24 143 39 170 6 12 9 22 5 22 -3 0 -1 7 6 15 6 8 9 19
6 24 -4 5 -3 12 2 15 13 8 2 74 -15 88 -12 10 -18 9 -30 -7 -20 -28 -13 -77
14 -90 21 -11 21 -11 3 -35 -21 -27 -22 -27 -35 14 -13 38 -42 57 -55 36 -26
-41 4 -96 47 -85 21 5 23 3 15 -12 -5 -10 -12 -36 -16 -58 -13 -87 -26 -115
-68 -145 -23 -17 -46 -30 -53 -30 -8 0 -15 26 -19 72 -4 40 -20 111 -36 158
l-29 85 28 30 c15 16 38 44 50 62 l21 32 25 -25 c27 -27 56 -26 85 3 23 22
-14 46 -63 40 -24 -3 -35 -1 -31 5 12 19 22 78 13 72 -16 -10 -9 9 9 22 10 8
12 13 5 14 -7 0 -13 5 -13 11 0 14 -39 69 -48 69 -4 0 -13 -9 -20 -21 -17 -27
0 -74 35 -92 l24 -13 -39 -59 c-47 -72 -95 -111 -111 -91 -11 13 -41 92 -41
107 0 5 15 9 33 9 33 0 67 24 67 48 0 21 -56 18 -81 -4 -8 -8 -19 -14 -23 -14
-5 0 -6 38 -5 85 2 47 1 85 -4 85 -4 0 -13 12 -20 28 -14 33 -36 51 -61 52
-16 0 -18 -5 -12 -32z m132 -612 c59 -19 64 -28 64 -120 0 -53 -3 -62 -41
-109 -22 -29 -61 -95 -86 -147 -25 -52 -47 -97 -49 -99 -6 -7 -53 39 -85 83
-41 55 -40 112 2 152 54 51 91 112 83 137 -3 12 -3 19 1 15 5 -4 14 -3 21 3 8
7 14 7 19 -1 11 -17 42 -11 71 13 33 28 25 47 -19 47 -24 0 -39 -8 -58 -32
l-27 -32 -12 41 c-15 48 -35 61 -50 33 -21 -39 -9 -90 21 -90 10 0 19 -3 19
-7 0 -12 -80 -103 -90 -103 -5 0 -6 37 -3 83 4 63 2 91 -11 121 -9 22 -15 41
-13 42 2 2 17 0 33 -4 39 -11 61 -5 67 18 5 19 7 19 49 -4 23 -13 66 -31 94
-40z m584 -36 c21 0 -1 -18 -31 -25 -24 -6 -25 -4 -21 25 4 28 6 30 21 15 10
-8 24 -15 31 -15z m-1070 -125 c0 -31 -28 -34 -61 -5 l-24 20 26 -6 c15 -3 30
-1 33 5 12 19 26 12 26 -14z m-353 -277 c32 -27 55 -59 69 -93 12 -29 33 -70
48 -91 37 -55 34 -64 -22 -64 -64 0 -117 38 -166 118 -41 68 -43 76 -17 67 27
-8 44 19 39 65 -2 22 -3 40 -1 40 1 0 23 -19 50 -42z m1453 -112 c0 -22 15
-27 44 -16 34 13 34 -3 -2 -54 -50 -71 -88 -72 -76 -1 3 16 7 42 7 58 2 27 27
39 27 13z m514 -260 c-8 -14 -14 -38 -12 -53 3 -25 0 -28 -27 -26 -60 3 -125
16 -125 24 0 5 24 16 53 24 28 9 68 24 87 34 19 11 36 19 38 20 1 1 -5 -10
-14 -23z"/>
<path d="M1752 1908 c-7 -7 -8 -17 -1 -30 15 -29 99 -22 99 8 0 29 -74 46 -98
22z"/>
<path d="M1714 1836 c-15 -12 -17 -18 -8 -33 19 -31 94 -37 94 -8 0 13 -46 55
-59 55 -4 0 -16 -6 -27 -14z"/>
<path d="M966 1528 c-35 -49 -6 -100 34 -63 20 18 25 41 14 69 -9 23 -30 20
-48 -6z"/>
<path d="M1862 2648 c-32 -16 -26 -52 10 -56 58 -7 92 39 42 58 -14 6 -26 10
-27 9 -1 0 -12 -5 -25 -11z"/>
<path d="M2010 2631 c-14 -36 1 -71 30 -71 25 0 37 42 21 76 -14 32 -36 30
-51 -5z"/>
<path d="M1804 2639 c-3 -6 -1 -16 5 -22 8 -8 11 -5 11 11 0 24 -5 28 -16 11z"/>
<path d="M1134 2619 c-10 -16 47 -70 71 -67 27 4 33 47 9 65 -22 16 -70 17
-80 2z"/>
<path d="M2340 2612 c0 -10 11 -29 25 -42 l26 -24 -23 -18 -23 -18 28 -25 c32
-29 44 -30 72 -9 20 15 20 16 -6 38 -19 16 -24 27 -18 37 14 22 11 37 -13 59
-28 26 -68 27 -68 2z"/>
<path d="M2504 2593 c-13 -14 -24 -32 -24 -38 0 -17 28 -27 52 -20 20 7 53 61
40 68 -31 17 -45 15 -68 -10z"/>
<path d="M1052 2580 c-17 -27 -15 -65 4 -81 14 -11 19 -10 36 11 12 14 17 32
14 44 -3 12 -6 27 -6 34 0 19 -34 14 -48 -8z"/>
<path d="M946 2582 c-12 -11 -5 -40 15 -66 l20 -26 -25 -10 c-14 -5 -26 -14
-26 -19 0 -18 44 -41 78 -41 30 0 33 2 30 27 -2 19 -10 29 -28 34 -14 4 -20 7
-13 8 22 2 33 35 20 61 -11 22 -59 44 -71 32z"/>
<path d="M580 2542 c0 -41 14 -62 41 -62 35 0 31 68 -5 92 -25 17 -36 7 -36
-30z"/>
<path d="M2079 2549 c-25 -25 -21 -53 7 -57 23 -3 64 39 64 64 0 21 -47 17
-71 -7z"/>
<path d="M690 2540 c-23 -23 -25 -80 -4 -87 20 -7 44 27 44 62 0 43 -14 51
-40 25z"/>
<path d="M790 2547 c-18 -9 -25 -21 -25 -41 0 -16 5 -31 11 -33 19 -6 65 38
62 60 -4 26 -17 30 -48 14z"/>
<path d="M1600 2540 c-35 -35 -22 -78 19 -65 18 6 41 44 41 70 0 22 -37 18
-60 -5z"/>
<path d="M1832 2548 c-33 -33 15 -64 66 -42 34 14 42 38 16 48 -26 10 -69 7
-82 -6z"/>
<path d="M2716 2518 c-22 -31 -20 -65 3 -78 33 -17 62 39 45 84 -9 23 -30 20
-48 -6z"/>
<path d="M1430 2510 c-25 -16 1 -45 44 -48 27 -2 38 1 43 14 12 32 -51 57 -87
34z"/>
<path d="M2528 2504 c-19 -10 -28 -23 -28 -39 0 -21 5 -25 29 -25 37 0 78 45
60 66 -14 17 -27 17 -61 -2z"/>
<path d="M1350 2497 c-33 -16 -42 -77 -12 -77 24 0 51 29 54 59 4 29 -9 35
-42 18z"/>
<path d="M840 2480 c-18 -33 -9 -74 17 -78 31 -5 46 27 32 67 -13 36 -33 40
-49 11z"/>
<path d="M2616 2481 c-8 -13 8 -54 27 -70 18 -14 48 -12 54 5 2 6 -8 26 -22
43 -27 31 -49 39 -59 22z"/>
<path d="M540 2460 c-33 -21 37 -78 72 -59 23 12 23 24 -2 49 -22 22 -46 25
-70 10z"/>
<path d="M2050 2445 c-31 -37 50 -63 83 -27 13 14 14 21 5 30 -17 17 -73 15
-88 -3z"/>
<path d="M1603 2430 c-25 -10 -47 -45 -38 -60 3 -6 17 -10 30 -10 28 0 60 41
51 65 -6 17 -12 18 -43 5z"/>
<path d="M2742 2414 c-36 -29 -41 -50 -12 -59 23 -7 56 9 70 35 13 25 13 28
-8 39 -14 7 -26 4 -50 -15z"/>
<path d="M745 2406 c-18 -13 -18 -15 10 -40 29 -27 42 -30 69 -20 24 9 19 30
-10 53 -31 25 -44 26 -69 7z"/>
<path d="M918 2408 c-25 -19 -39 -63 -25 -77 20 -20 44 -12 57 18 21 51 2 85
-32 59z"/>
<path d="M2523 2405 c-30 -21 -29 -43 3 -51 29 -7 79 23 79 47 0 20 -56 23
-82 4z"/>
<path d="M580 2373 c-16 -6 -40 -32 -40 -44 0 -14 59 -20 79 -9 47 25 13 72
-39 53z"/>
<path d="M2217 2352 c-19 -21 -23 -77 -6 -87 20 -13 49 26 49 67 0 42 -16 50
-43 20z"/>
<path d="M1034 2325 c-9 -22 1 -42 31 -61 23 -15 28 -15 41 -2 19 19 9 45 -27
63 -35 19 -38 19 -45 0z"/>
<path d="M1152 2328 c-17 -17 -16 -88 1 -88 23 0 47 35 47 68 0 24 -4 32 -18
32 -10 0 -23 -5 -30 -12z"/>
<path d="M946 2309 c-28 -22 -33 -68 -9 -76 18 -6 53 34 53 61 0 35 -13 39
-44 15z"/>
<path d="M2536 2311 c-34 -38 14 -60 64 -30 39 24 34 43 -11 47 -25 2 -40 -3
-53 -17z"/>
<path d="M355 2297 c-10 -37 11 -79 38 -75 28 4 34 40 13 74 -21 30 -44 31
-51 1z"/>
<path d="M1565 2281 c-16 -51 33 -112 60 -75 15 21 10 40 -18 72 -25 27 -34
28 -42 3z"/>
<path d="M2415 2268 c-47 -37 -22 -71 35 -48 21 9 30 19 30 35 0 31 -33 38
-65 13z"/>
<path d="M2914 2266 c-23 -36 -15 -71 15 -71 28 0 43 37 30 73 -11 29 -25 28
-45 -2z"/>
<path d="M461 2244 c-25 -31 -27 -62 -6 -71 25 -9 56 27 53 61 -4 39 -21 43
-47 10z"/>
<path d="M1207 2252 c-33 -21 -40 -82 -9 -82 36 0 74 68 50 88 -10 8 -21 6
-41 -6z"/>
<path d="M1660 2240 c-16 -31 -3 -80 21 -80 24 0 39 35 29 70 -8 32 -35 37
-50 10z"/>
<path d="M1320 2230 c-18 -34 -9 -74 18 -78 27 -4 36 16 28 63 -8 39 -29 46
-46 15z"/>
<path d="M2220 2243 c-37 -15 -27 -63 13 -63 28 0 67 26 67 44 0 23 -44 33
-80 19z"/>
<path d="M2803 2234 c-11 -28 22 -69 58 -72 30 -3 31 -2 25 25 -12 50 -69 82
-83 47z"/>
<path d="M1752 2208 c-17 -17 -15 -85 2 -91 17 -7 46 23 46 47 0 21 -18 56
-28 56 -5 0 -13 -5 -20 -12z"/>
<path d="M313 2202 c-25 -4 -31 -33 -10 -50 23 -19 63 -24 75 -9 25 29 -17 67
-65 59z"/>
<path d="M1414 2165 c-32 -13 -51 -52 -35 -68 16 -16 65 8 75 36 13 37 -1 49
-40 32z"/>
<path d="M2290 2162 c0 -29 44 -65 69 -57 26 8 27 29 1 55 -26 26 -70 27 -70
2z"/>
<path d="M2930 2156 c-23 -43 4 -72 41 -43 21 16 40 53 32 61 -16 16 -60 5
-73 -18z"/>
<path d="M1240 2141 c0 -20 44 -61 65 -61 7 0 18 7 25 15 9 11 7 19 -14 40
-31 31 -76 34 -76 6z"/>
<path d="M2151 2142 c-19 -35 55 -57 95 -28 19 15 19 15 -1 30 -28 22 -82 20
-94 -2z"/>
<path d="M2000 2120 c0 -25 45 -73 63 -67 23 7 20 50 -5 69 -31 24 -58 23 -58
-2z"/>
<path d="M308 2108 c-37 -13 -35 -32 5 -51 26 -13 35 -14 51 -3 30 20 30 33
-1 49 -20 10 -36 12 -55 5z"/>
<path d="M523 2062 c-27 -32 -29 -55 -8 -72 32 -27 68 35 49 84 -8 22 -15 20
-41 -12z"/>
<path d="M2262 2082 c-20 -13 -3 -40 29 -47 36 -8 69 2 69 20 0 28 -67 46 -98
27z"/>
<path d="M1360 2065 c0 -8 5 -15 10 -15 6 0 10 7 10 15 0 8 -4 15 -10 15 -5 0
-10 -7 -10 -15z"/>
<path d="M2146 2064 c-17 -16 -16 -18 2 -37 16 -15 28 -18 56 -13 54 10 45 46
-15 61 -18 4 -31 1 -43 -11z"/>
<path d="M2977 2055 c-26 -19 -18 -49 13 -53 33 -3 75 30 67 52 -8 20 -55 21
-80 1z"/>
<path d="M328 2009 c-10 -5 -18 -19 -18 -29 0 -16 7 -20 39 -20 41 0 67 20 57
45 -6 17 -52 20 -78 4z"/>
<path d="M2837 1983 c8 -3 11 -14 7 -28 -4 -17 1 -27 17 -39 23 -16 60 -21 72
-10 20 21 -53 86 -95 83 -10 0 -10 -2 -1 -6z"/>
<path d="M2940 1975 c-6 -8 -9 -23 -5 -35 5 -16 15 -20 51 -20 52 0 58 17 18
49 -31 25 -47 26 -64 6z"/>
<path d="M1424 1966 c-11 -29 4 -46 38 -46 46 0 66 14 52 37 -15 24 -82 30
-90 9z"/>
<path d="M2751 1967 c-20 -25 -24 -72 -8 -86 34 -27 76 56 45 87 -15 15 -23
15 -37 -1z"/>
<path d="M2657 1942 c-21 -23 -22 -65 -3 -81 22 -19 48 14 44 57 -4 42 -18 50
-41 24z"/>
<path d="M406 1929 c-14 -11 -26 -29 -26 -40 0 -27 42 -25 77 5 24 20 25 26
14 40 -18 21 -33 20 -65 -5z"/>
<path d="M1163 1908 c-30 -15 -29 -32 3 -53 21 -13 31 -15 50 -6 31 14 31 45
-1 59 -14 7 -27 12 -28 11 -1 0 -12 -5 -24 -11z"/>
<path d="M2410 1890 c0 -32 33 -74 53 -67 21 7 20 54 -2 76 -31 31 -51 27 -51
-9z"/>
<path d="M2560 1900 c-6 -12 -10 -33 -8 -48 4 -37 38 -36 56 0 23 50 -23 95
-48 48z"/>
<path d="M505 1899 c-4 -6 -11 -27 -15 -45 -7 -31 -6 -34 16 -34 27 0 58 39
52 67 -4 21 -43 30 -53 12z"/>
<path d="M2087 1871 c-20 -35 -22 -55 -4 -69 19 -16 57 13 57 43 0 59 -26 72
-53 26z"/>
<path d="M1431 1872 c-18 -34 19 -51 77 -36 45 13 13 54 -42 54 -14 0 -30 -8
-35 -18z"/>
<path d="M2957 1873 c-15 -18 -21 -36 -18 -60 3 -37 71 13 71 52 0 30 -29 34
-53 8z"/>
<path d="M2860 1861 c-22 -42 -7 -96 26 -89 23 4 31 56 14 88 -13 25 -26 26
-40 1z"/>
<path d="M1165 1809 c-10 -16 15 -68 36 -74 26 -8 39 2 39 29 0 40 -58 74 -75
45z"/>
<path d="M2380 1787 c0 -54 51 -90 65 -46 8 24 -22 72 -49 77 -12 3 -16 -4
-16 -31z"/>
<path d="M3060 1788 c-24 -26 -25 -38 -6 -64 12 -15 18 -17 33 -8 21 13 27 36
19 70 -8 30 -19 30 -46 2z"/>
<path d="M3200 1781 c-25 -47 2 -109 35 -81 25 21 13 100 -15 100 -5 0 -14 -9
-20 -19z"/>
<path d="M2124 1772 c-29 -23 -38 -56 -20 -71 21 -18 53 2 61 39 11 49 -5 62
-41 32z"/>
<path d="M2941 1773 l-23 -18 21 -19 c20 -19 23 -19 57 -3 24 12 34 23 32 35
-5 24 -59 28 -87 5z"/>
<path d="M545 1770 c-11 -17 -9 -70 3 -82 13 -13 40 -4 48 16 3 9 0 29 -7 46
-14 30 -32 39 -44 20z"/>
<path d="M445 1750 c-9 -30 21 -72 48 -68 30 4 33 35 6 64 -28 29 -46 31 -54
4z"/>
<path d="M2307 1763 c-24 -24 24 -100 56 -88 23 9 22 36 -4 69 -20 25 -39 33
-52 19z"/>
<path d="M633 1714 c-27 -30 -29 -56 -8 -74 32 -27 68 35 49 84 -8 22 -15 20
-41 -10z"/>
<path d="M2220 1711 c0 -30 43 -76 61 -65 16 9 10 60 -9 77 -30 27 -52 22 -52
-12z"/>
<path d="M3278 1714 c-29 -15 -45 -51 -30 -66 16 -16 43 -5 65 25 18 24 19 29
7 41 -13 13 -19 13 -42 0z"/>
<path d="M2700 1693 c-26 -34 -23 -67 7 -71 28 -4 49 34 39 72 -8 33 -19 33
-46 -1z"/>
<path d="M804 1686 c-6 -26 5 -55 29 -75 12 -9 18 -8 31 4 21 22 20 37 -5 69
-26 32 -47 33 -55 2z"/>
<path d="M2606 1688 c-20 -28 -20 -62 -1 -78 25 -21 45 -4 45 38 0 52 -22 72
-44 40z"/>
<path d="M3102 1694 c-23 -16 -30 -58 -12 -69 27 -17 70 27 70 70 0 20 -30 19
-58 -1z"/>
<path d="M2889 1684 c-28 -34 55 -60 96 -31 17 13 17 15 -6 30 -30 21 -73 22
-90 1z"/>
<path d="M2105 1652 c-29 -29 -29 -56 0 -60 25 -3 65 32 65 57 0 30 -36 32
-65 3z"/>
<path d="M2476 1655 c-19 -30 -15 -75 8 -75 23 0 48 37 44 67 -4 37 -31 41
-52 8z"/>
<path d="M1923 1654 c-8 -22 34 -55 67 -52 28 3 38 31 20 53 -17 21 -79 19
-87 -1z"/>
<path d="M458 1636 c-24 -18 -22 -35 4 -45 31 -11 72 2 76 24 7 33 -46 47 -80
21z"/>
<path d="M3186 1616 c-15 -13 -24 -26 -18 -30 9 -5 30 14 46 42 10 17 5 15
-28 -12z"/>
<path d="M3220 1605 c-17 -20 -5 -45 22 -46 70 -4 94 13 59 42 -28 23 -64 25
-81 4z"/>
<path d="M764 1585 c-13 -33 48 -65 86 -45 20 10 20 12 3 35 -21 29 -80 35
-89 10z"/>
<path d="M235 1580 c-12 -20 6 -71 28 -80 24 -9 47 4 47 27 0 16 -44 63 -59
63 -5 0 -13 -5 -16 -10z"/>
<path d="M2648 1578 c-20 -15 -15 -53 8 -62 31 -12 98 34 78 54 -17 17 -68 22
-86 8z"/>
<path d="M332 1555 c-17 -36 -15 -49 8 -70 16 -15 22 -15 35 -5 17 14 20 53 5
81 -15 26 -35 24 -48 -6z"/>
<path d="M520 1556 c-39 -42 -12 -70 44 -45 30 14 40 37 25 55 -17 21 -43 17
-69 -10z"/>
<path d="M3140 1541 c0 -28 27 -51 61 -51 35 0 38 21 9 50 -26 26 -70 27 -70
1z"/>
<path d="M707 1520 c-35 -28 -37 -70 -4 -70 31 0 60 32 55 61 -4 31 -20 33
-51 9z"/>
<path d="M412 1495 c-7 -14 -12 -34 -12 -44 0 -24 25 -45 45 -37 28 11 15 106
-15 106 -4 0 -12 -11 -18 -25z"/>
<path d="M803 1508 c-29 -14 -29 -34 -3 -48 51 -27 106 13 63 45 -21 17 -30
17 -60 3z"/>
<path d="M3027 1493 c-12 -11 -8 -68 5 -81 17 -17 45 -15 52 4 14 36 -34 101
-57 77z"/>
<path d="M219 1451 c-31 -25 -15 -45 36 -45 44 0 64 17 49 42 -16 25 -57 26
-85 3z"/>
<path d="M3163 1459 c-44 -16 -59 -79 -19 -79 26 0 56 33 56 62 0 22 -10 27
-37 17z"/>
<path d="M2967 1423 c-15 -15 -6 -71 14 -89 20 -18 21 -18 34 0 24 32 -21 116
-48 89z"/>
<path d="M2283 1394 c-9 -23 23 -44 64 -44 25 0 33 4 33 18 0 27 -20 42 -57
42 -22 0 -36 -6 -40 -16z"/>
<path d="M281 1376 c-27 -28 -21 -46 15 -46 39 0 64 18 64 45 0 21 -5 25 -28
25 -17 0 -38 -10 -51 -24z"/>
<path d="M3110 1342 c-21 -17 -21 -19 -5 -35 20 -21 55 -22 81 -3 17 13 17 16
4 29 -26 26 -56 29 -80 9z"/>
<path d="M2880 1313 c-26 -33 -22 -47 17 -51 25 -3 32 2 43 27 22 54 -22 72
-60 24z"/>
<path d="M387 1323 c-13 -12 -7 -81 8 -93 12 -10 18 -10 30 0 19 16 19 50 -1
78 -16 23 -26 27 -37 15z"/>
<path d="M2716 1311 c-14 -23 26 -81 56 -81 24 0 25 51 0 73 -20 19 -48 22
-56 8z"/>
<path d="M280 1300 c-12 -7 -12 -13 0 -35 25 -47 80 -59 80 -17 0 33 -54 68
-80 52z"/>
<path d="M475 1274 c-21 -33 -13 -74 15 -74 24 0 44 43 35 77 -7 30 -29 29
-50 -3z"/>
<path d="M1058 1262 c-24 -27 -29 -56 -14 -77 14 -19 15 -19 35 -1 24 22 28
68 8 85 -11 8 -18 7 -29 -7z"/>
<path d="M2409 1249 c-26 -26 -20 -43 15 -47 19 -2 36 4 53 19 22 22 23 24 7
36 -26 19 -51 16 -75 -8z"/>
<path d="M876 1244 c-8 -21 0 -33 31 -45 33 -12 63 -2 63 21 0 36 -81 57 -94
24z"/>
<path d="M2256 1228 c-20 -28 -20 -62 -1 -78 31 -25 63 27 46 74 -13 32 -25
33 -45 4z"/>
<path d="M3169 1224 c-11 -14 -10 -18 6 -30 25 -19 69 -18 86 2 11 14 10 18
-6 30 -25 19 -69 18 -86 -2z"/>
<path d="M1133 1200 c-46 -42 -38 -95 11 -72 26 12 42 51 32 77 -7 20 -18 19
-43 -5z"/>
<path d="M309 1190 c-24 -20 -24 -20 -5 -35 28 -21 60 -19 82 6 18 20 18 21
-1 35 -26 19 -49 18 -76 -6z"/>
<path d="M430 1190 c8 -5 20 -10 25 -10 6 0 3 5 -5 10 -8 5 -19 10 -25 10 -5
0 -3 -5 5 -10z"/>
<path d="M2187 1163 c-14 -14 -6 -70 12 -87 17 -16 20 -16 35 0 18 18 14 47
-12 77 -16 18 -25 21 -35 10z"/>
<path d="M2362 1158 c-29 -29 2 -60 51 -51 36 7 46 31 22 49 -23 17 -57 18
-73 2z"/>
<path d="M3120 1146 c0 -34 28 -52 78 -47 38 3 -12 71 -53 71 -20 0 -25 -5
-25 -24z"/>
<path d="M890 1145 c-20 -24 -4 -45 33 -45 38 0 63 21 53 45 -7 20 -69 20 -86
0z"/>
<path d="M506 1119 c-16 -12 -26 -31 -26 -46 0 -22 3 -24 28 -18 36 8 64 37
57 57 -10 26 -32 28 -59 7z"/>
<path d="M673 1121 c-18 -29 -16 -54 7 -81 16 -19 22 -21 35 -10 22 18 18 55
-7 85 -23 25 -23 26 -35 6z"/>
<path d="M3047 1103 c-14 -13 -7 -43 12 -53 33 -17 71 -13 71 8 0 35 -61 68
-83 45z"/>
<path d="M764 1076 c-3 -8 -4 -29 -2 -48 2 -28 7 -33 28 -33 20 0 26 6 28 28
5 43 -41 88 -54 53z"/>
<path d="M2963 1083 c-36 -14 5 -89 44 -81 21 4 19 30 -3 66 -15 22 -19 24
-41 15z"/>
<path d="M867 1045 c-20 -19 -32 -59 -22 -74 10 -18 44 -12 55 8 13 26 13 43
-3 65 -13 17 -14 17 -30 1z"/>
<path d="M564 1035 c-19 -15 -19 -15 5 -36 29 -24 74 -22 79 4 4 20 -23 46
-49 47 -8 0 -24 -7 -35 -15z"/>
<path d="M625 956 l-30 -24 27 -12 c52 -24 115 16 73 46 -26 19 -35 18 -70
-10z"/>
<path d="M707 902 c-26 -28 -22 -52 9 -52 39 0 64 18 64 45 0 21 -5 25 -28 25
-16 0 -36 -8 -45 -18z"/>
<path d="M810 860 c-25 -25 -26 -60 -2 -60 29 0 62 29 62 56 0 30 -31 33 -60
4z"/>
</g>
</svg>
