<?xml version="1.0" standalone="no"?>
<svg version="1.0" xmlns="http://www.w3.org/2000/svg"
 width="512.000000pt" height="512.000000pt" viewBox="0 0 512.000000 512.000000"
 preserveAspectRatio="xMidYMid meet">

<g transform="translate(0.000000,512.000000) scale(0.100000,-0.100000)"
fill="#fff" stroke="none">
<path d="M300 4406 c0 -7 2252 -2031 2260 -2031 8 0 2260 2024 2260 2031 0 2
-1017 4 -2260 4 -1243 0 -2260 -2 -2260 -4z"/>
<path d="M0 2560 c0 -869 2 -1580 5 -1580 10 0 1750 1571 1750 1580 0 9 -1740
1580 -1750 1580 -3 0 -5 -711 -5 -1580z"/>
<path d="M4235 3354 c-478 -432 -870 -789 -870 -794 0 -9 1740 -1580 1750
-1580 3 0 5 711 5 1580 0 869 -3 1580 -7 1579 -5 0 -399 -354 -878 -785z"/>
<path d="M1176 1507 l-879 -792 1131 -3 c623 -1 1641 -1 2264 0 l1131 3 -839
755 c-461 415 -857 771 -879 792 l-41 37 -249 -225 c-138 -123 -252 -224 -255
-224 -3 0 -109 93 -235 206 -127 114 -239 214 -250 224 -20 18 -38 2 -899
-773z"/>
</g>
</svg>
