<?xml version="1.0" standalone="no"?>
<svg version="1.0" xmlns="http://www.w3.org/2000/svg"
 width="512.000000pt" height="512.000000pt" viewBox="0 0 512.000000 512.000000"
 preserveAspectRatio="xMidYMid meet">

<g transform="translate(0.000000,512.000000) scale(0.100000,-0.100000)"
fill="#000000" stroke="none">
<path d="M922 4620 c-217 -58 -379 -227 -428 -447 -14 -64 -16 -106 -11 -243
35 -901 385 -1722 1009 -2365 608 -627 1407 -1002 2291 -1074 283 -24 417 -9
550 61 87 45 194 156 240 246 61 123 69 184 65 479 -4 238 -6 263 -27 323 -46
132 -142 251 -252 317 -76 44 -548 232 -628 249 -84 17 -138 17 -226 -1 -138
-29 -272 -114 -362 -230 l-31 -39 -88 33 c-285 108 -570 301 -744 504 -143
165 -273 385 -351 591 l-33 88 39 31 c116 90 201 224 230 362 18 87 18 142 1
225 -17 80 -205 555 -249 629 -66 110 -185 206 -317 252 -61 22 -83 23 -335
26 -242 2 -278 1 -343 -17z m591 -320 c55 -21 114 -73 140 -126 40 -79 198
-491 203 -528 15 -109 -55 -220 -177 -281 -145 -74 -157 -129 -80 -366 162
-496 490 -917 921 -1179 252 -154 625 -291 723 -266 43 10 87 56 122 125 61
122 172 192 281 177 40 -5 453 -165 534 -206 52 -27 105 -89 124 -148 15 -44
17 -86 14 -279 -3 -255 -7 -272 -78 -343 -69 -69 -94 -75 -285 -74 -795 6
-1608 356 -2200 949 -287 286 -514 616 -674 977 -169 381 -260 775 -278 1193
-8 194 5 245 78 316 73 71 102 77 361 78 194 1 223 -1 271 -19z"/>
</g>
</svg>
